<svg version="1.1" viewBox="0.0 0.0 730.5590551181102 505.2808398950131" fill="none" stroke="none" stroke-linecap="square" stroke-miterlimit="10" xmlns:xlink="http://www.w3.org/1999/xlink" xmlns="http://www.w3.org/2000/svg"><clipPath id="p.0"><path d="m0 0l730.5591 0l0 505.28085l-730.5591 0l0 -505.28085z" clip-rule="nonzero"/></clipPath><g clip-path="url(#p.0)"><path fill="#000000" fill-opacity="0.0" d="m0 0l730.5591 0l0 505.28085l-730.5591 0z" fill-rule="evenodd"/><path fill="#ffffff" d="m0.89238846 -1.7847769l730.55115 0l0 505.29135l-730.55115 0z" fill-rule="evenodd"/><path fill="#000000" fill-opacity="0.0" d="m164.83464 18.997375l534.2677 0l0 457.95276l-534.2677 0z" fill-rule="evenodd"/><path stroke="#000000" stroke-width="4.0" stroke-linejoin="round" stroke-linecap="butt" d="m164.83464 18.997375l534.2677 0l0 457.95276l-534.2677 0z" fill-rule="evenodd"/><path fill="#000000" fill-opacity="0.0" d="m365.82416 230.16273l0 225.16011l226.43042 0l24.170593 -36.892395l0 -227.70341l-226.43304 0z" fill-rule="evenodd"/><path stroke="#000000" stroke-width="4.0" stroke-linejoin="round" stroke-linecap="butt" d="m365.82416 230.16273l0 225.16011l226.43042 0l24.170593 -36.892395l0 -227.70341l-226.43304 0z" fill-rule="evenodd"/><path fill="#000000" fill-opacity="0.0" d="m423.06824 251.42168l137.3858 0l0 138.64568l-137.3858 0z" fill-rule="evenodd"/><path stroke="#000000" stroke-width="4.0" stroke-linejoin="round" stroke-linecap="butt" d="m423.06824 251.42168l137.3858 0l0 138.64568l-137.3858 0z" fill-rule="evenodd"/><path fill="#000000" fill-opacity="0.0" d="m424.3386 319.8504l0 0c0 -37.59015 30.47284 -68.063 68.06299 -68.063l0 0c18.051422 0 35.363495 7.1709137 48.127777 19.935196c12.764282 12.764282 19.93518 30.076385 19.93518 48.127808l0 0c0 37.59015 -30.47284 68.06299 -68.06296 68.06299l0 0c-37.59015 0 -68.06299 -30.47284 -68.06299 -68.06299z" fill-rule="evenodd"/><path stroke="#000000" stroke-width="4.0" stroke-linejoin="round" stroke-linecap="butt" d="m424.3386 319.8504l0 0c0 -37.59015 30.47284 -68.063 68.06299 -68.063l0 0c18.051422 0 35.363495 7.1709137 48.127777 19.935196c12.764282 12.764282 19.93518 30.076385 19.93518 48.127808l0 0c0 37.59015 -30.47284 68.06299 -68.06296 68.06299l0 0c-37.59015 0 -68.06299 -30.47284 -68.06299 -68.06299z" fill-rule="evenodd"/><path fill="#000000" d="m480.30972 322.3937l0 0c0 -5.975128 4.8437805 -10.818909 10.818878 -10.818909l0 0c2.8693542 0 5.6211853 1.1398621 7.650116 3.1687927c2.0289307 2.0289307 3.1687927 4.7807617 3.1687927 7.650116l0 0c0 5.9750977 -4.8437805 10.818878 -10.818909 10.818878l0 0c-5.9750977 0 -10.818878 -4.8437805 -10.818878 -10.818878z" fill-rule="evenodd"/><path stroke="#000000" stroke-width="1.0" stroke-linejoin="round" stroke-linecap="butt" d="m480.30972 322.3937l0 0c0 -5.975128 4.8437805 -10.818909 10.818878 -10.818909l0 0c2.8693542 0 5.6211853 1.1398621 7.650116 3.1687927c2.0289307 2.0289307 3.1687927 4.7807617 3.1687927 7.650116l0 0c0 5.9750977 -4.8437805 10.818878 -10.818909 10.818878l0 0c-5.9750977 0 -10.818878 -4.8437805 -10.818878 -10.818878z" fill-rule="evenodd"/><path fill="#000000" fill-opacity="0.0" d="m185.1881 153.83115l0 0c0 -17.560059 14.2352295 -31.79528 31.795273 -31.79528l0 0c8.432632 0 16.519882 3.349846 22.48265 9.312614c5.962784 5.9627686 9.312622 14.050034 9.312622 22.482666l0 0c0 17.560043 -14.2352295 31.795273 -31.795273 31.795273l0 0c-17.560043 0 -31.795273 -14.2352295 -31.795273 -31.795273z" fill-rule="evenodd"/><path stroke="#000000" stroke-width="4.0" stroke-linejoin="round" stroke-linecap="butt" d="m185.1881 153.83115l0 0c0 -17.560059 14.2352295 -31.79528 31.795273 -31.79528l0 0c8.432632 0 16.519882 3.349846 22.48265 9.312614c5.962784 5.9627686 9.312622 14.050034 9.312622 22.482666l0 0c0 17.560043 -14.2352295 31.795273 -31.795273 31.795273l0 0c-17.560043 0 -31.795273 -14.2352295 -31.795273 -31.795273z" fill-rule="evenodd"/><path fill="#000000" fill-opacity="0.0" d="m197.90814 153.84514l0 0c0 -11.245728 9.11647 -20.362198 20.362198 -20.362198l0 0c5.4003906 0 10.579605 2.1452942 14.398254 5.9639435c3.8186493 3.8186646 5.9639587 8.997864 5.9639587 14.398254l0 0c0 11.245743 -9.11647 20.362213 -20.362213 20.362213l0 0c-11.245728 0 -20.362198 -9.11647 -20.362198 -20.362213z" fill-rule="evenodd"/><path stroke="#000000" stroke-width="4.0" stroke-linejoin="round" stroke-linecap="butt" d="m197.90814 153.84514l0 0c0 -11.245728 9.11647 -20.362198 20.362198 -20.362198l0 0c5.4003906 0 10.579605 2.1452942 14.398254 5.9639435c3.8186493 3.8186646 5.9639587 8.997864 5.9639587 14.398254l0 0c0 11.245743 -9.11647 20.362213 -20.362213 20.362213l0 0c-11.245728 0 -20.362198 -9.11647 -20.362198 -20.362213z" fill-rule="evenodd"/><path fill="#000000" fill-opacity="0.0" d="m185.92308 224.53079l0 0c0 -17.560059 14.2352295 -31.795288 31.795273 -31.795288l0 0c8.432632 0 16.519882 3.3498535 22.48265 9.312622c5.9627686 5.9627686 9.312622 14.050034 9.312622 22.482666l0 0c0 17.560043 -14.2352295 31.795258 -31.795273 31.795258l0 0c-17.560043 0 -31.795273 -14.235214 -31.795273 -31.795258z" fill-rule="evenodd"/><path stroke="#000000" stroke-width="4.0" stroke-linejoin="round" stroke-linecap="butt" d="m185.92308 224.53079l0 0c0 -17.560059 14.2352295 -31.795288 31.795273 -31.795288l0 0c8.432632 0 16.519882 3.3498535 22.48265 9.312622c5.9627686 5.9627686 9.312622 14.050034 9.312622 22.482666l0 0c0 17.560043 -14.2352295 31.795258 -31.795273 31.795258l0 0c-17.560043 0 -31.795273 -14.235214 -31.795273 -31.795258z" fill-rule="evenodd"/><path fill="#000000" fill-opacity="0.0" d="m198.64311 224.54478l0 0c0 -11.245728 9.11647 -20.362198 20.362213 -20.362198l0 0c5.4003906 0 10.579605 2.1452942 14.398254 5.9639435c3.8186493 3.8186646 5.9639435 8.997864 5.9639435 14.398254l0 0c0 11.245743 -9.11647 20.362213 -20.362198 20.362213l0 0c-11.245743 0 -20.362213 -9.11647 -20.362213 -20.362213z" fill-rule="evenodd"/><path stroke="#000000" stroke-width="4.0" stroke-linejoin="round" stroke-linecap="butt" d="m198.64311 224.54478l0 0c0 -11.245728 9.11647 -20.362198 20.362213 -20.362198l0 0c5.4003906 0 10.579605 2.1452942 14.398254 5.9639435c3.8186493 3.8186646 5.9639435 8.997864 5.9639435 14.398254l0 0c0 11.245743 -9.11647 20.362213 -20.362198 20.362213l0 0c-11.245743 0 -20.362213 -9.11647 -20.362213 -20.362213z" fill-rule="evenodd"/><path fill="#000000" fill-opacity="0.0" d="m185.38597 296.5025l0 0c0 -17.560028 14.2352295 -31.795258 31.795273 -31.795258l0 0c8.432632 0 16.519897 3.3498535 22.482666 9.312622c5.9627686 5.9627686 9.312622 14.050018 9.312622 22.482635l0 0c0 17.560059 -14.2352295 31.795288 -31.795288 31.795288l0 0c-17.560043 0 -31.795273 -14.2352295 -31.795273 -31.795288z" fill-rule="evenodd"/><path stroke="#000000" stroke-width="4.0" stroke-linejoin="round" stroke-linecap="butt" d="m185.38597 296.5025l0 0c0 -17.560028 14.2352295 -31.795258 31.795273 -31.795258l0 0c8.432632 0 16.519897 3.3498535 22.482666 9.312622c5.9627686 5.9627686 9.312622 14.050018 9.312622 22.482635l0 0c0 17.560059 -14.2352295 31.795288 -31.795288 31.795288l0 0c-17.560043 0 -31.795273 -14.2352295 -31.795273 -31.795288z" fill-rule="evenodd"/><path fill="#000000" fill-opacity="0.0" d="m198.10602 296.5165l0 0c0 -11.245728 9.11647 -20.362183 20.362198 -20.362183l0 0c5.400406 0 10.579605 2.1452942 14.398254 5.963928c3.8186646 3.8186646 5.9639587 8.997864 5.9639587 14.398254l0 0c0 11.245758 -9.11647 20.362213 -20.362213 20.362213l0 0c-11.245728 0 -20.362198 -9.116455 -20.362198 -20.362213z" fill-rule="evenodd"/><path stroke="#000000" stroke-width="4.0" stroke-linejoin="round" stroke-linecap="butt" d="m198.10602 296.5165l0 0c0 -11.245728 9.11647 -20.362183 20.362198 -20.362183l0 0c5.400406 0 10.579605 2.1452942 14.398254 5.963928c3.8186646 3.8186646 5.9639587 8.997864 5.9639587 14.398254l0 0c0 11.245758 -9.11647 20.362213 -20.362213 20.362213l0 0c-11.245728 0 -20.362198 -9.116455 -20.362198 -20.362213z" fill-rule="evenodd"/><path fill="#000000" fill-opacity="0.0" d="m184.84888 368.47424l0 0c0 -17.560028 14.2352295 -31.795288 31.795273 -31.795288l0 0c8.432632 0 16.519882 3.3498535 22.48265 9.312622c5.9627686 5.962799 9.312622 14.050049 9.312622 22.482666l0 0c0 17.560059 -14.2352295 31.795288 -31.795273 31.795288l0 0c-17.560043 0 -31.795273 -14.2352295 -31.795273 -31.795288z" fill-rule="evenodd"/><path stroke="#000000" stroke-width="4.0" stroke-linejoin="round" stroke-linecap="butt" d="m184.84888 368.47424l0 0c0 -17.560028 14.2352295 -31.795288 31.795273 -31.795288l0 0c8.432632 0 16.519882 3.3498535 22.48265 9.312622c5.9627686 5.962799 9.312622 14.050049 9.312622 22.482666l0 0c0 17.560059 -14.2352295 31.795288 -31.795273 31.795288l0 0c-17.560043 0 -31.795273 -14.2352295 -31.795273 -31.795288z" fill-rule="evenodd"/><path fill="#000000" fill-opacity="0.0" d="m197.56891 368.48825l0 0c0 -11.245728 9.11647 -20.362213 20.362213 -20.362213l0 0c5.4003906 0 10.57959 2.1452942 14.398254 5.9639587c3.8186493 3.8186646 5.9639435 8.997864 5.9639435 14.398254l0 0c0 11.245728 -9.11647 20.362213 -20.362198 20.362213l0 0c-11.245743 0 -20.362213 -9.116486 -20.362213 -20.362213z" fill-rule="evenodd"/><path stroke="#000000" stroke-width="4.0" stroke-linejoin="round" stroke-linecap="butt" d="m197.56891 368.48825l0 0c0 -11.245728 9.11647 -20.362213 20.362213 -20.362213l0 0c5.4003906 0 10.57959 2.1452942 14.398254 5.9639587c3.8186493 3.8186646 5.9639435 8.997864 5.9639435 14.398254l0 0c0 11.245728 -9.11647 20.362213 -20.362198 20.362213l0 0c-11.245743 0 -20.362213 -9.116486 -20.362213 -20.362213z" fill-rule="evenodd"/><path fill="#000000" fill-opacity="0.0" d="m185.58386 439.1739l0 0c0 -17.560059 14.2352295 -31.795288 31.795273 -31.795288l0 0c8.432632 0 16.519882 3.3498535 22.48265 9.312622c5.9627686 5.9627686 9.312622 14.050049 9.312622 22.482666l0 0c0 17.560059 -14.2352295 31.795288 -31.795273 31.795288l0 0c-17.560043 0 -31.795273 -14.2352295 -31.795273 -31.795288z" fill-rule="evenodd"/><path stroke="#000000" stroke-width="4.0" stroke-linejoin="round" stroke-linecap="butt" d="m185.58386 439.1739l0 0c0 -17.560059 14.2352295 -31.795288 31.795273 -31.795288l0 0c8.432632 0 16.519882 3.3498535 22.48265 9.312622c5.9627686 5.9627686 9.312622 14.050049 9.312622 22.482666l0 0c0 17.560059 -14.2352295 31.795288 -31.795273 31.795288l0 0c-17.560043 0 -31.795273 -14.2352295 -31.795273 -31.795288z" fill-rule="evenodd"/><path fill="#000000" fill-opacity="0.0" d="m198.3039 439.1879l0 0c0 -11.245728 9.11647 -20.362213 20.362213 -20.362213l0 0c5.4003906 0 10.57959 2.1452942 14.398254 5.9639587c3.8186493 3.8186646 5.9639435 8.997864 5.9639435 14.398254l0 0c0 11.245728 -9.11647 20.362213 -20.362198 20.362213l0 0c-11.245743 0 -20.362213 -9.116486 -20.362213 -20.362213z" fill-rule="evenodd"/><path stroke="#000000" stroke-width="4.0" stroke-linejoin="round" stroke-linecap="butt" d="m198.3039 439.1879l0 0c0 -11.245728 9.11647 -20.362213 20.362213 -20.362213l0 0c5.4003906 0 10.57959 2.1452942 14.398254 5.9639587c3.8186493 3.8186646 5.9639435 8.997864 5.9639435 14.398254l0 0c0 11.245728 -9.11647 20.362213 -20.362198 20.362213l0 0c-11.245743 0 -20.362213 -9.116486 -20.362213 -20.362213z" fill-rule="evenodd"/><path fill="#000000" fill-opacity="0.0" d="m358.30472 154.11382l0 0c0 -17.560043 14.2352295 -31.795273 31.795258 -31.795273l0 0c8.432648 0 16.519897 3.3498535 22.482666 9.312622c5.9627686 5.9627686 9.312622 14.050018 9.312622 22.48265l0 0c0 17.560059 -14.2352295 31.795288 -31.795288 31.795288l0 0c-17.560028 0 -31.795258 -14.2352295 -31.795258 -31.795288z" fill-rule="evenodd"/><path stroke="#000000" stroke-width="4.0" stroke-linejoin="round" stroke-linecap="butt" d="m358.30472 154.11382l0 0c0 -17.560043 14.2352295 -31.795273 31.795258 -31.795273l0 0c8.432648 0 16.519897 3.3498535 22.482666 9.312622c5.9627686 5.9627686 9.312622 14.050018 9.312622 22.48265l0 0c0 17.560059 -14.2352295 31.795288 -31.795288 31.795288l0 0c-17.560028 0 -31.795258 -14.2352295 -31.795258 -31.795288z" fill-rule="evenodd"/><path fill="#000000" fill-opacity="0.0" d="m371.02475 154.12782l0 0c0 -11.245728 9.116455 -20.362198 20.362213 -20.362198l0 0c5.4003906 0 10.57959 2.1452942 14.398254 5.9639435c3.818634 3.8186646 5.963928 8.997864 5.963928 14.398254l0 0c0 11.245743 -9.116455 20.362213 -20.362183 20.362213l0 0c-11.245758 0 -20.362213 -9.11647 -20.362213 -20.362213z" fill-rule="evenodd"/><path stroke="#000000" stroke-width="4.0" stroke-linejoin="round" stroke-linecap="butt" d="m371.02475 154.12782l0 0c0 -11.245728 9.116455 -20.362198 20.362213 -20.362198l0 0c5.4003906 0 10.57959 2.1452942 14.398254 5.9639435c3.818634 3.8186646 5.963928 8.997864 5.963928 14.398254l0 0c0 11.245743 -9.116455 20.362213 -20.362183 20.362213l0 0c-11.245758 0 -20.362213 -9.11647 -20.362213 -20.362213z" fill-rule="evenodd"/><path fill="#000000" fill-opacity="0.0" d="m187.39304 72.841736l0 0c0 -17.560043 14.235245 -31.795273 31.795288 -31.795273l0 0c8.432632 0 16.519882 3.3498497 22.48265 9.312618c5.9627686 5.9627724 9.312622 14.050022 9.312622 22.482655l0 0c0 17.560043 -14.2352295 31.79528 -31.795273 31.79528l0 0c-17.560043 0 -31.795288 -14.235237 -31.795288 -31.79528z" fill-rule="evenodd"/><path stroke="#000000" stroke-width="4.0" stroke-linejoin="round" stroke-linecap="butt" d="m187.39304 72.841736l0 0c0 -17.560043 14.235245 -31.795273 31.795288 -31.795273l0 0c8.432632 0 16.519882 3.3498497 22.48265 9.312618c5.9627686 5.9627724 9.312622 14.050022 9.312622 22.482655l0 0c0 17.560043 -14.2352295 31.79528 -31.795273 31.79528l0 0c-17.560043 0 -31.795288 -14.235237 -31.795288 -31.79528z" fill-rule="evenodd"/><path fill="#000000" fill-opacity="0.0" d="m387.44882 34.262466l0 63.590553" fill-rule="evenodd"/><path stroke="#000000" stroke-width="4.0" stroke-linejoin="round" stroke-linecap="butt" d="m387.44882 34.262466l0 63.590553" fill-rule="evenodd"/><path fill="#000000" fill-opacity="0.0" d="m367.09448 72.42519l20.346466 25.448822" fill-rule="evenodd"/><path stroke="#000000" stroke-width="4.0" stroke-linejoin="round" stroke-linecap="butt" d="m367.09448 72.42519l20.346466 25.448822" fill-rule="evenodd"/><path fill="#000000" fill-opacity="0.0" d="m407.2572 71.52061l-20.346466 25.448814" fill-rule="evenodd"/><path stroke="#000000" stroke-width="4.0" stroke-linejoin="round" stroke-linecap="butt" d="m407.2572 71.52061l-20.346466 25.448814" fill-rule="evenodd"/><path fill="#000000" fill-opacity="0.0" d="m650.45044 412.15567l0 -373.98425l46.86615 0l0 373.98425z" fill-rule="evenodd"/><path fill="#000000" d="m666.8511 390.37442l-1.75 0l0 11.9375l1.75 0l0 -4.96875l14.359375 0l0 -2.0l-14.359375 0l0 -4.96875zm2.390625 -3.0646973l1.78125 0l0 -4.0625l8.421875 0l0 4.0625l1.765625 0l0 -10.015625l-1.765625 0l0 3.90625l-10.203125 0l0 6.109375zm-3.140625 -3.796875q0.5 0 0.828125 -0.296875q0.328125 -0.3125 0.328125 -0.9375q0 -0.609375 -0.328125 -0.90625q-0.328125 -0.3125 -0.828125 -0.3125q-0.28125 0 -0.515625 0.09375q-0.234375 0.078125 -0.375 0.25q-0.15625 0.140625 -0.234375 0.375q-0.078125 0.21875 -0.078125 0.5q0 0.296875 0.078125 0.53125q0.078125 0.21875 0.234375 0.359375q0.15625 0.171875 0.390625 0.265625q0.234375 0.078125 0.5 0.078125zm15.109375 -9.470978l0 -2.046875l-8.578125 0q-0.390625 -0.21875 -0.703125 -0.5q-0.328125 -0.28125 -0.578125 -0.609375q-0.28125 -0.40625 -0.4375 -0.890625q-0.15625 -0.484375 -0.15625 -1.0625q0 -0.640625 0.15625 -1.140625q0.15625 -0.515625 0.5 -0.859375q0.34375 -0.34375 0.890625 -0.515625q0.546875 -0.1875 1.34375 -0.1875l7.5625 0l0 -2.046875l-7.59375 0q-1.203125 0 -2.0625 0.296875q-0.875 0.28125 -1.4375 0.828125q-0.5625 0.546875 -0.828125 1.3125q-0.265625 0.765625 -0.265625 1.703125q0 0.703125 0.203125 1.328125q0.1875 0.625 0.546875 1.15625q0.234375 0.359375 0.546875 0.671875q0.3125 0.3125 0.6875 0.578125l-1.765625 0.140625l0 1.84375l11.96875 0zm4.828125 -14.564697q0 -0.796875 -0.296875 -1.421875q-0.296875 -0.625 -0.734375 -1.09375q-0.4375 -0.453125 -0.96875 -0.78125q-0.515625 -0.328125 -0.984375 -0.53125l-13.8125 -6.078125l0 2.28125l7.765625 3.09375l1.40625 0.5625l-1.453125 0.53125l-7.71875 3.28125l0 2.296875l11.40625 -5.15625l1.59375 0.8125q0.21875 0.109375 0.5625 0.3125q0.34375 0.1875 0.65625 0.453125q0.328125 0.28125 0.5625 0.625q0.234375 0.34375 0.234375 0.765625q0 0.15625 -0.015625 0.4375q-0.015625 0.265625 -0.046875 0.546875l1.671875 0.328125q0.046875 -0.203125 0.109375 -0.578125q0.0625 -0.390625 0.0625 -0.6875zm-9.671875 -36.660675l0 2.046875q0.734375 0.109375 1.359375 0.359375q0.625 0.234375 1.078125 0.640625q0.453125 0.40625 0.71875 1.0q0.25 0.59375 0.25 1.390625q0 0.75 -0.234375 1.3125q-0.234375 0.546875 -0.65625 0.953125q-0.421875 0.40625 -0.953125 0.671875q-0.546875 0.265625 -1.171875 0.4375q-0.609375 0.15625 -1.234375 0.234375q-0.640625 0.078125 -1.234375 0.078125l-2.265625 0q-0.609375 0 -1.234375 -0.078125q-0.640625 -0.078125 -1.25 -0.234375q-0.609375 -0.171875 -1.140625 -0.4375q-0.546875 -0.28125 -0.953125 -0.6875q-0.421875 -0.390625 -0.65625 -0.953125q-0.234375 -0.5625 -0.234375 -1.296875q0 -0.796875 0.28125 -1.390625q0.265625 -0.59375 0.734375 -1.0q0.46875 -0.40625 1.109375 -0.640625q0.625 -0.25 1.359375 -0.359375l0 -2.046875q-1.15625 0.140625 -2.09375 0.5625q-0.953125 0.40625 -1.640625 1.09375q-0.6875 0.6875 -1.046875 1.640625q-0.375 0.9375 -0.375 2.140625q0 1.015625 0.28125 1.828125q0.28125 0.796875 0.78125 1.4375q0.5 0.640625 1.1875 1.09375q0.671875 0.453125 1.46875 0.765625q0.796875 0.296875 1.671875 0.453125q0.875 0.15625 1.765625 0.15625l2.25 0q0.890625 0 1.765625 -0.15625q0.875 -0.15625 1.671875 -0.453125q0.796875 -0.3125 1.46875 -0.765625q0.671875 -0.453125 1.171875 -1.09375q0.5 -0.640625 0.78125 -1.453125q0.28125 -0.8125 0.28125 -1.8125q0 -1.15625 -0.359375 -2.09375q-0.375 -0.953125 -1.046875 -1.65625q-0.671875 -0.671875 -1.609375 -1.109375q-0.9375 -0.4375 -2.046875 -0.578125zm-1.25 -2.5803528l0.234375 0q1.296875 0 2.40625 -0.375q1.109375 -0.390625 1.921875 -1.09375q0.828125 -0.6875 1.296875 -1.703125q0.453125 -1.015625 0.453125 -2.28125q0 -1.265625 -0.453125 -2.265625q-0.46875 -1.015625 -1.296875 -1.71875q-0.8125 -0.703125 -1.921875 -1.078125q-1.109375 -0.375 -2.40625 -0.375l-0.234375 0q-1.296875 0 -2.40625 0.375q-1.109375 0.375 -1.9375 1.078125q-0.8125 0.703125 -1.28125 1.71875q-0.46875 1.015625 -0.46875 2.28125q0 1.265625 0.46875 2.28125q0.46875 1.0 1.28125 1.6875q0.828125 0.703125 1.9375 1.09375q1.109375 0.375 2.40625 0.375zm0.234375 -2.046875l-0.234375 0q-0.875 0 -1.671875 -0.203125q-0.8125 -0.21875 -1.421875 -0.65625q-0.609375 -0.421875 -0.96875 -1.046875q-0.359375 -0.625 -0.359375 -1.484375q0 -0.859375 0.359375 -1.484375q0.359375 -0.640625 0.96875 -1.078125q0.609375 -0.40625 1.421875 -0.625q0.796875 -0.21875 1.671875 -0.21875l0.234375 0q0.890625 0 1.703125 0.21875q0.796875 0.203125 1.40625 0.625q0.609375 0.421875 0.96875 1.0625q0.34375 0.640625 0.34375 1.484375q0 0.84375 -0.34375 1.484375q-0.359375 0.640625 -0.96875 1.0625q-0.609375 0.4375 -1.40625 0.65625q-0.8125 0.203125 -1.703125 0.203125zm-0.21875 -11.736572l0.21875 0q1.296875 0 2.40625 -0.34375q1.109375 -0.34375 1.921875 -0.96875q0.828125 -0.625 1.296875 -1.5q0.453125 -0.875 0.453125 -1.96875q0 -1.09375 -0.375 -1.921875q-0.375 -0.84375 -1.109375 -1.4375l1.265625 -0.078125l0 -1.890625l-17.0 0l0 2.046875l6.21875 0q-0.6875 0.59375 -1.046875 1.390625q-0.359375 0.796875 -0.359375 1.875q0 1.09375 0.453125 1.984375q0.453125 0.875 1.265625 1.5q0.796875 0.625 1.921875 0.96875q1.125 0.34375 2.46875 0.34375zm0.21875 -2.046875l-0.21875 0q-0.875 0 -1.671875 -0.1875q-0.796875 -0.1875 -1.40625 -0.59375q-0.59375 -0.390625 -0.9375 -1.0q-0.359375 -0.609375 -0.359375 -1.484375q0 -1.0 0.46875 -1.671875q0.46875 -0.671875 1.203125 -1.078125l5.546875 0q0.796875 0.40625 1.265625 1.078125q0.453125 0.671875 0.453125 1.703125q0 0.84375 -0.34375 1.453125q-0.359375 0.609375 -0.953125 1.0q-0.59375 0.40625 -1.375 0.59375q-0.796875 0.1875 -1.671875 0.1875zm6.078125 -17.236603q0 -1.734375 -0.703125 -2.921875q-0.703125 -1.203125 -1.609375 -1.796875l-0.96875 1.25q0.734375 0.5625 1.171875 1.421875q0.4375 0.84375 0.4375 1.9375q0 0.828125 -0.296875 1.515625q-0.3125 0.6875 -0.859375 1.171875q-0.515625 0.484375 -1.171875 0.75q-0.671875 0.265625 -1.546875 0.34375l-0.078125 0l0 -8.546875l-0.90625 0q-1.25 0 -2.328125 0.328125q-1.078125 0.3125 -1.875 0.953125q-0.78125 0.640625 -1.21875 1.609375q-0.453125 0.96875 -0.453125 2.25q0 1.03125 0.421875 2.015625q0.421875 0.984375 1.203125 1.734375q0.796875 0.78125 1.9375 1.25q1.140625 0.453125 2.59375 0.453125l0.46875 0q1.25 0 2.3125 -0.40625q1.0625 -0.421875 1.828125 -1.1875q0.78125 -0.75 1.21875 -1.796875q0.421875 -1.0625 0.421875 -2.328125zm-10.734375 0.265625q0 -0.78125 0.296875 -1.34375q0.28125 -0.578125 0.75 -0.953125q0.46875 -0.375 1.109375 -0.578125q0.625 -0.21875 1.1875 -0.21875l0.09375 0l0 6.4375q-0.828125 -0.125 -1.46875 -0.421875q-0.640625 -0.3125 -1.078125 -0.75q-0.4375 -0.4375 -0.65625 -0.984375q-0.234375 -0.5625 -0.234375 -1.1875zm3.9375 -27.4888l6.578125 -3.171875l0 -2.1562347l-0.125 -0.015625l-6.890625 3.4218597q-0.28125 -0.65625 -0.6875 -1.203125q-0.421875 -0.5625 -0.953125 -0.96873474q-0.53125 -0.390625 -1.171875 -0.609375q-0.65625 -0.234375 -1.4375 -0.234375q-1.21875 0 -2.125 0.421875q-0.90625 0.421875 -1.5 1.1718597q-0.59375 0.75 -0.890625 1.75q-0.296875 0.984375 -0.328125 2.125l0 4.71875l16.109375 0l0 -2.03125l-6.578125 0l0 -3.21875zm-1.671875 3.21875l-6.171875 0l0 -2.6875q0 -0.75 0.203125 -1.375q0.203125 -0.625 0.59375 -1.078125q0.390625 -0.453125 0.984375 -0.703125q0.578125 -0.265625 1.34375 -0.265625q0.734375 0 1.296875 0.265625q0.546875 0.265625 0.9375 0.71875q0.390625 0.46875 0.59375 1.078125q0.203125 0.609375 0.21875 1.296875l0 2.75zm8.46875 -16.783447q0 -1.734375 -0.703125 -2.921875q-0.703125 -1.203125 -1.609375 -1.796875l-0.96875 1.25q0.734375 0.5625 1.171875 1.421875q0.4375 0.84375 0.4375 1.9375q0 0.828125 -0.296875 1.515625q-0.3125 0.6875 -0.859375 1.171875q-0.515625 0.484375 -1.171875 0.75q-0.671875 0.265625 -1.546875 0.34375l-0.078125 0l0 -8.546875l-0.90625 0q-1.25 0 -2.328125 0.328125q-1.078125 0.3125 -1.875 0.953125q-0.78125 0.640625 -1.21875 1.609375q-0.453125 0.96875 -0.453125 2.25q0 1.03125 0.421875 2.015625q0.421875 0.984375 1.203125 1.734375q0.796875 0.78125 1.9375 1.25q1.140625 0.453125 2.59375 0.453125l0.46875 0q1.25 0 2.3125 -0.40625q1.0625 -0.421875 1.828125 -1.1875q0.78125 -0.75 1.21875 -1.796875q0.421875 -1.0625 0.421875 -2.328125zm-10.734375 0.265625q0 -0.78125 0.296875 -1.34375q0.28125 -0.578125 0.75 -0.953125q0.46875 -0.375 1.109375 -0.578125q0.625 -0.21875 1.1875 -0.21875l0.09375 0l0 6.4375q-0.828125 -0.125 -1.46875 -0.421875q-0.640625 -0.3125 -1.078125 -0.75q-0.4375 -0.4375 -0.65625 -0.984375q-0.234375 -0.5625 -0.234375 -1.1875zm10.515625 -16.439713l0 -2.125l-0.171875 0q-0.5 0.203125 -1.171875 0.3125q-0.671875 0.109375 -1.265625 0.109375l-5.5625 0q-1.015625 0 -1.765625 0.359375q-0.75 0.359375 -1.265625 1.0q-0.484375 0.640625 -0.734375 1.515625q-0.25 0.875 -0.25 1.890625q0 1.109375 0.3125 2.0q0.296875 0.875 0.796875 1.484375q0.515625 0.609375 1.15625 0.9375q0.625 0.328125 1.265625 0.34375l0 -2.0625q-0.375 0 -0.71875 -0.171875q-0.34375 -0.1875 -0.609375 -0.515625q-0.25 -0.34375 -0.40625 -0.8125q-0.15625 -0.484375 -0.15625 -1.09375q0 -0.65625 0.171875 -1.171875q0.171875 -0.53125 0.46875 -0.890625q0.296875 -0.375 0.734375 -0.5625q0.4375 -0.203125 0.96875 -0.203125l0.953125 0l0 2.234375q0 1.25 0.25 2.265625q0.234375 1.0 0.71875 1.71875q0.5 0.71875 1.25 1.125q0.734375 0.390625 1.71875 0.390625q0.75 0 1.40625 -0.296875q0.640625 -0.296875 1.09375 -0.84375q0.484375 -0.53125 0.765625 -1.296875q0.265625 -0.765625 0.265625 -1.71875q0 -0.578125 -0.125 -1.09375q-0.109375 -0.53125 -0.328125 -1.0q-0.203125 -0.453125 -0.484375 -0.828125q-0.28125 -0.390625 -0.59375 -0.6875q0.390625 -0.046875 0.734375 -0.109375q0.34375 -0.078125 0.578125 -0.203125zm-1.5625 3.625q0 0.59375 -0.15625 1.046875q-0.15625 0.453125 -0.421875 0.75q-0.265625 0.296875 -0.640625 0.453125q-0.375 0.15625 -0.828125 0.15625q-0.46875 0 -0.828125 -0.171875q-0.359375 -0.171875 -0.625 -0.515625q-0.375 -0.453125 -0.5625 -1.25q-0.1875 -0.796875 -0.1875 -1.859375l0 -1.890625l2.421875 0q0.359375 0.171875 0.6875 0.484375q0.328125 0.3125 0.578125 0.734375q0.25 0.421875 0.40625 0.953125q0.15625 0.515625 0.15625 1.109375zm-4.515625 -8.955338l0.21875 0q1.296875 0 2.40625 -0.34375q1.109375 -0.34375 1.921875 -0.96875q0.828125 -0.625 1.296875 -1.5q0.453125 -0.875 0.453125 -1.96875q0 -1.09375 -0.375 -1.921875q-0.375 -0.84375 -1.109375 -1.4375l1.265625 -0.078125l0 -1.890625l-17.0 0l0 2.046875l6.21875 0q-0.6875 0.59375 -1.046875 1.390625q-0.359375 0.796875 -0.359375 1.875q0 1.09375 0.453125 1.984375q0.453125 0.875 1.265625 1.5q0.796875 0.625 1.921875 0.96875q1.125 0.34375 2.46875 0.34375zm0.21875 -2.046875l-0.21875 0q-0.875 0 -1.671875 -0.1875q-0.796875 -0.1875 -1.40625 -0.59375q-0.59375 -0.390625 -0.9375 -1.0q-0.359375 -0.609375 -0.359375 -1.484375q0 -1.0 0.46875 -1.671875q0.46875 -0.671875 1.203125 -1.078125l5.546875 0q0.796875 0.40625 1.265625 1.078125q0.453125 0.671875 0.453125 1.703125q0 0.84375 -0.34375 1.453125q-0.359375 0.609375 -0.953125 1.0q-0.59375 0.40625 -1.375 0.59375q-0.796875 0.1875 -1.671875 0.1875zm6.078125 -17.236588q0 -1.734375 -0.703125 -2.921875q-0.703125 -1.203125 -1.609375 -1.796875l-0.96875 1.25q0.734375 0.5625 1.171875 1.421875q0.4375 0.84375 0.4375 1.9375q0 0.828125 -0.296875 1.515625q-0.3125 0.6875 -0.859375 1.171875q-0.515625 0.484375 -1.171875 0.75q-0.671875 0.265625 -1.546875 0.34375l-0.078125 0l0 -8.546875l-0.90625 0q-1.25 0 -2.328125 0.328125q-1.078125 0.3125 -1.875 0.953125q-0.78125 0.640625 -1.21875 1.609375q-0.453125 0.96875 -0.453125 2.25q0 1.03125 0.421875 2.015625q0.421875 0.984375 1.203125 1.734375q0.796875 0.78125 1.9375 1.25q1.140625 0.453125 2.59375 0.453125l0.46875 0q1.25 0 2.3125 -0.40625q1.0625 -0.421875 1.828125 -1.1875q0.78125 -0.75 1.21875 -1.796875q0.421875 -1.0625 0.421875 -2.328125zm-10.734375 0.265625q0 -0.78125 0.296875 -1.34375q0.28125 -0.578125 0.75 -0.953125q0.46875 -0.375 1.109375 -0.578125q0.625 -0.21875 1.1875 -0.21875l0.09375 0l0 6.4375q-0.828125 -0.125 -1.46875 -0.421875q-0.640625 -0.3125 -1.078125 -0.75q-0.4375 -0.4375 -0.65625 -0.984375q-0.234375 -0.5625 -0.234375 -1.1875zm-1.671875 -16.408463q0 1.296875 0.578125 2.328125q0.5625 1.015625 1.546875 1.75l-0.296875 0.015625l-1.609375 0.078125l0 1.953125l11.96875 0l0 -2.0625l-7.671875 0q-0.5625 -0.1875 -1.0 -0.484375q-0.453125 -0.3125 -0.765625 -0.734375q-0.359375 -0.453125 -0.53125 -1.046875q-0.1875 -0.609375 -0.1875 -1.375q0 -0.578125 0.0625 -1.109375q0.0625 -0.546875 0.1875 -1.140625l-2.0 -0.28125q-0.125 0.3125 -0.203125 0.9375q-0.078125 0.609375 -0.078125 1.171875zm12.1875 -23.3013l0 -1.78125l-16.109375 -5.078125l0 2.1875l12.0 3.5625l0.8125 0.234375l-0.78125 0.234375l-12.03125 3.546875l0 2.1875l16.109375 -5.09375zm0 -16.283463l-16.109375 0l0 0.171875l2.34375 6.09375l1.875 0l-1.609375 -4.21875l13.5 0l0 -2.046875zm-1.328125 -10.517853q0.640625 0 1.09375 -0.40625q0.4375 -0.40625 0.4375 -1.203125q0 -0.78125 -0.4375 -1.203125q-0.4375 -0.421875 -1.09375 -0.421875q-0.65625 0 -1.109375 0.421875q-0.46875 0.40625 -0.46875 1.203125q0 0.8125 0.46875 1.21875q0.453125 0.390625 1.109375 0.390625zm-4.828125 -20.14283l-3.78125 0q-1.53125 0 -2.71875 0.359375q-1.1875 0.34375 -2.015625 1.0q-0.8125 0.6875 -1.234375 1.65625q-0.4375 0.96875 -0.4375 2.203125q0 1.21875 0.4375 2.1875q0.421875 0.96875 1.234375 1.6406326q0.828125 0.671875 2.015625 1.03125q1.1875 0.34375 2.71875 0.34375l3.78125 0q1.53125 0 2.71875 -0.34375q1.1875 -0.359375 2.0 -1.03125q0.828125 -0.6718826 1.25 -1.6406326q0.40625 -0.984375 0.40625 -2.21875q0 -1.234375 -0.421875 -2.1875q-0.421875 -0.96875 -1.234375 -1.640625q-0.8125 -0.65625 -2.0 -1.0q-1.1875 -0.359375 -2.71875 -0.359375zm-0.421875 8.375q-0.28125 0 -0.546875 0q-0.28125 0 -0.5625 0l-2.703125 0q-1.125 0 -1.984375 -0.21875q-0.859375 -0.234375 -1.390625 -0.703125q-0.4375 -0.390625 -0.65625 -0.9375q-0.234375 -0.5625 -0.234375 -1.296875q0 -0.71875 0.21875 -1.265625q0.203125 -0.546875 0.625 -0.921875q0.40625 -0.390625 1.015625 -0.609375q0.609375 -0.234375 1.40625 -0.328125l4.8125 6.28125zm0.84375 -6.328125q1.1875 0 2.0625 0.25q0.875 0.234375 1.421875 0.734375q0.390625 0.375 0.609375 0.921875q0.203125 0.546875 0.203125 1.234375q0 0.671875 -0.1875 1.203125q-0.203125 0.53125 -0.578125 0.90625q-0.390625 0.40625 -1.0 0.671875q-0.625 0.25 -1.4375 0.34375l-4.78125 -6.265625q0.3125 0 0.78125 0q0.46875 0 0.625 0l2.28125 0z" fill-rule="nonzero"/><path fill="#000000" fill-opacity="0.0" d="m153.17836 476.15567l0 -373.98425l46.86615 0l0 373.98425z" fill-rule="evenodd"/><path fill="#000000" d="m181.829 454.81192l-5.90625 0.03125l0 5.21875l1.71875 0l0 -3.265625l3.625 0.015625q0.359375 0.25 0.59375 0.625q0.21875 0.375 0.359375 0.8125q0.125 0.4375 0.171875 0.890625q0.046875 0.453125 0.03125 0.875q-0.015625 0.734375 -0.265625 1.3125q-0.25 0.578125 -0.65625 1.0q-0.421875 0.453125 -0.96875 0.765625q-0.5625 0.296875 -1.1875 0.5q-0.609375 0.203125 -1.25 0.296875q-0.65625 0.09375 -1.265625 0.109375l-1.890625 0q-0.609375 0 -1.25 -0.078125q-0.640625 -0.078125 -1.25 -0.265625q-0.625 -0.171875 -1.171875 -0.4375q-0.5625 -0.28125 -0.984375 -0.703125q-0.421875 -0.421875 -0.671875 -0.984375q-0.25 -0.5625 -0.25 -1.296875q0 -0.765625 0.234375 -1.34375q0.234375 -0.578125 0.65625 -1.0q0.421875 -0.40625 1.015625 -0.65625q0.59375 -0.25 1.28125 -0.375l0 -2.03125q-1.125 0.109375 -2.03125 0.546875q-0.921875 0.421875 -1.5625 1.125q-0.640625 0.71875 -0.984375 1.671875q-0.359375 0.9375 -0.359375 2.0625q0 1.03125 0.296875 1.84375q0.296875 0.8125 0.8125 1.453125q0.515625 0.65625 1.21875 1.125q0.703125 0.46875 1.515625 0.78125q0.828125 0.296875 1.71875 0.453125q0.890625 0.140625 1.78125 0.15625l1.875 0q0.90625 -0.015625 1.796875 -0.171875q0.890625 -0.171875 1.6875 -0.515625q0.828125 -0.34375 1.53125 -0.828125q0.6875 -0.5 1.203125 -1.171875q0.515625 -0.65625 0.8125 -1.484375q0.28125 -0.84375 0.296875 -1.84375q0.015625 -0.984375 -0.21875 -1.875q-0.21875 -0.90625 -0.6875 -1.671875q-0.265625 -0.453125 -0.625 -0.875q-0.359375 -0.421875 -0.796875 -0.796875zm2.109375 -13.267822l-16.109375 0l0 2.078125l12.015625 0.03125l-12.015625 6.25l0 2.078125l16.109375 0l0 -2.078125l-12.03125 -0.03125l12.03125 -6.25l0 -2.078125zm0 -3.2991028l0 -3.71875q-0.015625 -1.171875 -0.28125 -2.171875q-0.265625 -1.0 -0.765625 -1.796875q-0.46875 -0.75 -1.140625 -1.359375q-0.671875 -0.609375 -1.5 -1.0q-0.796875 -0.390625 -1.75 -0.59375q-0.953125 -0.203125 -2.015625 -0.203125l-1.1875 0q-1.109375 0 -2.078125 0.21875q-0.96875 0.21875 -1.796875 0.625q-0.953125 0.453125 -1.6875 1.21875q-0.75 0.75 -1.203125 1.734375q-0.328125 0.71875 -0.5 1.546875q-0.1875 0.828125 -0.203125 1.78125l0 3.71875l16.109375 0zm-14.421875 -2.078125l0 -1.640625q0 -0.765625 0.171875 -1.40625q0.15625 -0.640625 0.4375 -1.171875q0.390625 -0.71875 1.015625 -1.21875q0.625 -0.515625 1.40625 -0.8125q0.59375 -0.234375 1.28125 -0.34375q0.6875 -0.125 1.453125 -0.125l1.203125 0q0.734375 0 1.421875 0.125q0.671875 0.109375 1.265625 0.328125q0.71875 0.25 1.296875 0.6875q0.578125 0.4375 0.984375 1.03125q0.375 0.5625 0.59375 1.296875q0.203125 0.71875 0.21875 1.609375l0 1.640625l-12.75 0zm-1.6875 -52.50885l1.78125 0l0 -3.78125l12.5625 0l0 3.78125l1.765625 0l0 -9.734375l-1.765625 0l0 3.859375l-12.5625 0l0 -3.859375l-1.78125 0l0 9.734375zm16.109375 -23.689697l-16.109375 0l0 2.078125l12.015625 0.03125l-12.015625 6.25l0 2.078125l16.109375 0l0 -2.078125l-12.03125 -0.03125l12.03125 -6.25l0 -2.078125zm-14.359375 -14.361603l-1.75 0l0 11.9375l1.75 0l0 -4.96875l14.359375 0l0 -2.0l-14.359375 0l0 -4.96875zm10.28125 -24.77005q0.671875 0 1.15625 0.296875q0.484375 0.28125 0.78125 0.734375q0.328125 0.453125 0.484375 1.046875q0.140625 0.578125 0.140625 1.171875q0 0.75 -0.203125 1.390625q-0.203125 0.625 -0.609375 1.109375q-0.40625 0.5 -0.984375 0.8125q-0.578125 0.296875 -1.328125 0.40625l0 2.078125q1.03125 -0.03125 1.890625 -0.453125q0.84375 -0.421875 1.46875 -1.15625q0.734375 -0.8125 1.125 -1.921875q0.375 -1.125 0.375 -2.265625q0 -0.96875 -0.265625 -1.921875q-0.28125 -0.96875 -0.8125 -1.734375q-0.53125 -0.765625 -1.34375 -1.234375q-0.8125 -0.484375 -1.890625 -0.484375q-1.078125 0 -1.890625 0.453125q-0.8125 0.4375 -1.390625 1.171875q-0.59375 0.734375 -0.984375 1.640625q-0.40625 0.890625 -0.671875 1.78125q-0.171875 0.546875 -0.390625 1.15625q-0.21875 0.609375 -0.5625 1.140625q-0.328125 0.53125 -0.796875 0.875q-0.484375 0.34375 -1.1875 0.34375q-0.640625 0 -1.125 -0.25q-0.484375 -0.265625 -0.828125 -0.703125q-0.328125 -0.4375 -0.484375 -0.984375q-0.171875 -0.5625 -0.171875 -1.15625q0 -0.734375 0.234375 -1.3125q0.21875 -0.578125 0.625 -1.0q0.40625 -0.421875 0.984375 -0.671875q0.5625 -0.25 1.265625 -0.34375l0 -2.109375q-1.109375 0.03125 -2.0 0.484375q-0.90625 0.453125 -1.53125 1.203125q-0.625 0.75 -0.96875 1.734375q-0.359375 0.96875 -0.359375 2.015625q0 0.953125 0.296875 1.890625q0.296875 0.9375 0.859375 1.6875q0.5625 0.734375 1.390625 1.203125q0.8125 0.453125 1.84375 0.453125q1.046875 0 1.8125 -0.453125q0.765625 -0.46875 1.328125 -1.1875q0.5625 -0.734375 0.953125 -1.609375q0.390625 -0.875 0.671875 -1.734375q0.1875 -0.578125 0.421875 -1.21875q0.21875 -0.640625 0.5625 -1.171875q0.359375 -0.53125 0.875 -0.859375q0.5 -0.34375 1.234375 -0.34375zm4.078125 -4.9553223l0 -3.71875q-0.015625 -1.171875 -0.28125 -2.171875q-0.265625 -1.0 -0.765625 -1.796875q-0.46875 -0.75 -1.140625 -1.359375q-0.671875 -0.609375 -1.5 -1.0q-0.796875 -0.390625 -1.75 -0.59375q-0.953125 -0.203125 -2.015625 -0.203125l-1.1875 0q-1.109375 0 -2.078125 0.21875q-0.96875 0.21875 -1.796875 0.625q-0.953125 0.453125 -1.6875 1.21875q-0.75 0.75 -1.203125 1.734375q-0.328125 0.71875 -0.5 1.546875q-0.1875 0.828125 -0.203125 1.78125l0 3.71875l16.109375 0zm-14.421875 -2.078125l0 -1.640625q0 -0.765625 0.171875 -1.40625q0.15625 -0.640625 0.4375 -1.171875q0.390625 -0.71875 1.015625 -1.21875q0.625 -0.515625 1.40625 -0.8125q0.59375 -0.234375 1.28125 -0.34375q0.6875 -0.125 1.453125 -0.125l1.203125 0q0.734375 0 1.421875 0.125q0.671875 0.109375 1.265625 0.328125q0.71875 0.25 1.296875 0.6875q0.578125 0.4375 0.984375 1.03125q0.375 0.5625 0.59375 1.296875q0.203125 0.71875 0.21875 1.609375l0 1.640625l-12.75 0zm10.25 -19.408478l4.171875 -1.28125l0 -2.03125l-16.109375 5.109375l0 1.71875l16.109375 5.203125l0 -2.046875l-4.171875 -1.296875l0 -5.375zm-1.78125 4.8125l-6.984375 -2.15625l6.984375 -2.125l0 4.28125zm1.875 -59.946335q0.671875 0 1.15625 0.296875q0.484375 0.28125 0.78125 0.734375q0.328125 0.453125 0.484375 1.046875q0.140625 0.578125 0.140625 1.171875q0 0.75 -0.203125 1.390625q-0.203125 0.625 -0.609375 1.109375q-0.40625 0.5 -0.984375 0.8125q-0.578125 0.296875 -1.328125 0.40625l0 2.078125q1.03125 -0.03125 1.890625 -0.453125q0.84375 -0.421875 1.46875 -1.15625q0.734375 -0.8125 1.125 -1.921875q0.375 -1.125 0.375 -2.265625q0 -0.96875 -0.265625 -1.921875q-0.28125 -0.96875 -0.8125 -1.734375q-0.53125 -0.765625 -1.34375 -1.234375q-0.8125 -0.484375 -1.890625 -0.484375q-1.078125 0 -1.890625 0.453125q-0.8125 0.4375 -1.390625 1.171875q-0.59375 0.734375 -0.984375 1.640625q-0.40625 0.890625 -0.671875 1.78125q-0.171875 0.546875 -0.390625 1.15625q-0.21875 0.609375 -0.5625 1.140625q-0.328125 0.53125 -0.796875 0.875q-0.484375 0.34375 -1.1875 0.34375q-0.640625 0 -1.125 -0.25q-0.484375 -0.265625 -0.828125 -0.703125q-0.328125 -0.4375 -0.484375 -0.984375q-0.171875 -0.5625 -0.171875 -1.15625q0 -0.734375 0.234375 -1.3125q0.21875 -0.578125 0.625 -1.0q0.40625 -0.421875 0.984375 -0.671875q0.5625 -0.25 1.265625 -0.34375l0 -2.109375q-1.109375 0.03125 -2.0 0.484375q-0.90625 0.453125 -1.53125 1.203125q-0.625 0.75 -0.96875 1.734375q-0.359375 0.96875 -0.359375 2.015625q0 0.953125 0.296875 1.890625q0.296875 0.9375 0.859375 1.6875q0.5625 0.734375 1.390625 1.203125q0.8125 0.453125 1.84375 0.453125q1.046875 0 1.8125 -0.453125q0.765625 -0.46875 1.328125 -1.1875q0.5625 -0.734375 0.953125 -1.609375q0.390625 -0.875 0.671875 -1.734375q0.1875 -0.578125 0.421875 -1.21875q0.21875 -0.640625 0.5625 -1.171875q0.359375 -0.53125 0.875 -0.859375q0.5 -0.34375 1.234375 -0.34375zm-0.765625 -15.595963l0 2.046875q0.734375 0.109375 1.359375 0.359375q0.625 0.234375 1.078125 0.640625q0.453125 0.40625 0.71875 1.0q0.25 0.59375 0.25 1.390625q0 0.75 -0.234375 1.3125q-0.234375 0.546875 -0.65625 0.953125q-0.421875 0.40625 -0.953125 0.671875q-0.546875 0.265625 -1.171875 0.4375q-0.609375 0.15625 -1.234375 0.234375q-0.640625 0.078125 -1.234375 0.078125l-2.265625 0q-0.609375 0 -1.234375 -0.078125q-0.640625 -0.078125 -1.25 -0.234375q-0.609375 -0.171875 -1.140625 -0.4375q-0.546875 -0.28125 -0.953125 -0.6875q-0.421875 -0.390625 -0.65625 -0.953125q-0.234375 -0.5625 -0.234375 -1.296875q0 -0.796875 0.28125 -1.390625q0.265625 -0.59375 0.734375 -1.0q0.46875 -0.40625 1.109375 -0.640625q0.625 -0.25 1.359375 -0.359375l0 -2.046875q-1.15625 0.140625 -2.09375 0.5625q-0.953125 0.40625 -1.640625 1.09375q-0.6875 0.6875 -1.046875 1.640625q-0.375 0.9375 -0.375 2.140625q0 1.015625 0.28125 1.828125q0.28125 0.796875 0.78125 1.4375q0.5 0.640625 1.1875 1.09375q0.671875 0.453125 1.46875 0.765625q0.796875 0.296875 1.671875 0.453125q0.875 0.15625 1.765625 0.15625l2.25 0q0.890625 0 1.765625 -0.15625q0.875 -0.15625 1.671875 -0.453125q0.796875 -0.3125 1.46875 -0.765625q0.671875 -0.453125 1.171875 -1.09375q0.5 -0.640625 0.78125 -1.453125q0.28125 -0.8125 0.28125 -1.8125q0 -1.15625 -0.359375 -2.09375q-0.375 -0.953125 -1.046875 -1.65625q-0.671875 -0.671875 -1.609375 -1.109375q-0.9375 -0.4375 -2.046875 -0.578125zm3.109375 -5.4709625l-14.375 0l0 2.046875l16.109375 0l0 -9.921875l-1.734375 0l0 7.875zm-7.296875 -40.865997l1.65625 0l0 -1.46875q0 -0.75 0.171875 -1.390625q0.171875 -0.640625 0.546875 -1.09375q0.359375 -0.4375 0.90625 -0.6875q0.546875 -0.25 1.296875 -0.25q0.765625 0 1.328125 0.21875q0.5625 0.21875 0.9375 0.609375q0.375 0.40625 0.5625 0.96875q0.171875 0.5625 0.171875 1.25q0 0.703125 -0.1875 1.28125q-0.203125 0.5625 -0.578125 0.953125q-0.359375 0.40625 -0.875 0.625q-0.53125 0.203125 -1.15625 0.203125l0 2.046875q1.0625 0 1.890625 -0.390625q0.828125 -0.40625 1.40625 -1.09375q0.578125 -0.6875 0.875 -1.625q0.296875 -0.9375 0.296875 -2.0q0 -1.078125 -0.3125 -2.015625q-0.3125 -0.9375 -0.921875 -1.625q-0.59375 -0.671875 -1.46875 -1.0625q-0.875 -0.390625 -2.0 -0.390625q-0.5625 0 -1.125 0.125q-0.5625 0.125 -1.078125 0.4375q-0.5 0.328125 -0.90625 0.859375q-0.421875 0.515625 -0.671875 1.296875q-0.28125 -0.65625 -0.6875 -1.125q-0.421875 -0.46875 -0.890625 -0.765625q-0.46875 -0.296875 -0.96875 -0.4375q-0.5 -0.140625 -0.953125 -0.140625q-1.125 0 -1.96875 0.359375q-0.859375 0.34375 -1.4375 0.984375q-0.5625 0.640625 -0.859375 1.546875q-0.296875 0.890625 -0.296875 1.96875q0 1.125 0.359375 2.03125q0.34375 0.90625 0.9375 1.5625q0.609375 0.65625 1.421875 1.015625q0.8125 0.359375 1.734375 0.359375l0 -2.0625q-0.640625 0 -1.140625 -0.203125q-0.515625 -0.21875 -0.875 -0.59375q-0.375 -0.375 -0.5625 -0.90625q-0.1875 -0.546875 -0.1875 -1.203125q0 -0.671875 0.171875 -1.1875q0.171875 -0.53125 0.5 -0.890625q0.359375 -0.359375 0.90625 -0.546875q0.53125 -0.1875 1.25 -0.1875q0.609375 0 1.125 0.203125q0.5 0.203125 0.859375 0.609375q0.375 0.40625 0.59375 1.0q0.203125 0.59375 0.203125 1.359375l0 1.46875zm9.03125 -15.158447l0 -1.78125l-16.109375 -5.078125l0 2.1875l12.0 3.5625l0.8125 0.234375l-0.78125 0.234375l-12.03125 3.546875l0 2.1875l16.109375 -5.09375zm-9.03125 -12.033447l1.65625 0l0 -1.46875q0 -0.75 0.171875 -1.390625q0.171875 -0.640625 0.546875 -1.09375q0.359375 -0.4375 0.90625 -0.6875q0.546875 -0.25 1.296875 -0.25q0.765625 0 1.328125 0.21875q0.5625 0.21875 0.9375 0.609375q0.375 0.40625 0.5625 0.96875q0.171875 0.5625 0.171875 1.25q0 0.703125 -0.1875 1.28125q-0.203125 0.5625 -0.578125 0.953125q-0.359375 0.40625 -0.875 0.625q-0.53125 0.203125 -1.15625 0.203125l0 2.046875q1.0625 0 1.890625 -0.390625q0.828125 -0.40625 1.40625 -1.09375q0.578125 -0.6875 0.875 -1.625q0.296875 -0.9375 0.296875 -2.0q0 -1.078125 -0.3125 -2.015625q-0.3125 -0.9375 -0.921875 -1.625q-0.59375 -0.671875 -1.46875 -1.0625q-0.875 -0.390625 -2.0 -0.390625q-0.5625 0 -1.125 0.125q-0.5625 0.125 -1.078125 0.4375q-0.5 0.328125 -0.90625 0.859375q-0.421875 0.515625 -0.671875 1.296875q-0.28125 -0.65625 -0.6875 -1.125q-0.421875 -0.46875 -0.890625 -0.765625q-0.46875 -0.296875 -0.96875 -0.4375q-0.5 -0.140625 -0.953125 -0.140625q-1.125 0 -1.96875 0.359375q-0.859375 0.34375 -1.4375 0.984375q-0.5625 0.640625 -0.859375 1.546875q-0.296875 0.890625 -0.296875 1.96875q0 1.125 0.359375 2.03125q0.34375 0.90625 0.9375 1.5625q0.609375 0.65625 1.421875 1.015625q0.8125 0.359375 1.734375 0.359375l0 -2.0625q-0.640625 0 -1.140625 -0.203125q-0.515625 -0.21875 -0.875 -0.59375q-0.375 -0.375 -0.5625 -0.90625q-0.1875 -0.546875 -0.1875 -1.203125q0 -0.671875 0.171875 -1.1875q0.171875 -0.53125 0.5 -0.890625q0.359375 -0.359375 0.90625 -0.546875q0.53125 -0.1875 1.25 -0.1875q0.609375 0 1.125 0.203125q0.5 0.203125 0.859375 0.609375q0.375 0.40625 0.59375 1.0q0.203125 0.59375 0.203125 1.359375l0 1.46875z" fill-rule="nonzero"/><path fill="#000000" fill-opacity="0.0" d="m278.04987 32.564373l0 0c0 -1.8728771 1.51828 -3.3911438 3.3911438 -3.3911438l13.564178 0l0 0c0.89938354 0 1.7619324 0.35727882 2.3978882 0.99324226c0.6359558 0.63596344 0.9932556 1.4985142 0.9932556 2.3979015l0 117.87912c0 1.872879 -1.51828 3.3911438 -3.3911438 3.3911438l-13.564178 0c-1.8728638 0 -3.3911438 -1.5182648 -3.3911438 -3.3911438z" fill-rule="evenodd"/><path stroke="#000000" stroke-width="4.0" stroke-linejoin="round" stroke-linecap="butt" d="m278.04987 32.564373l0 0c0 -1.8728771 1.51828 -3.3911438 3.3911438 -3.3911438l13.564178 0l0 0c0.89938354 0 1.7619324 0.35727882 2.3978882 0.99324226c0.6359558 0.63596344 0.9932556 1.4985142 0.9932556 2.3979015l0 117.87912c0 1.872879 -1.51828 3.3911438 -3.3911438 3.3911438l-13.564178 0c-1.8728638 0 -3.3911438 -1.5182648 -3.3911438 -3.3911438z" fill-rule="evenodd"/><path fill="#000000" fill-opacity="0.0" d="m275.50656 203.0237l0 0c0 -1.872879 1.51828 -3.3911438 3.3911438 -3.3911438l13.564178 0l0 0c0.89938354 0 1.7619324 0.3572693 2.3978882 0.99324036c0.6359558 0.6359558 0.9932556 1.4985046 0.9932556 2.3979034l0 257.8161c0 1.8728943 -1.51828 3.3911438 -3.3911438 3.3911438l-13.564178 0c-1.8728638 0 -3.3911438 -1.5182495 -3.3911438 -3.3911438z" fill-rule="evenodd"/><path stroke="#000000" stroke-width="4.0" stroke-linejoin="round" stroke-linecap="butt" d="m275.50656 203.0237l0 0c0 -1.872879 1.51828 -3.3911438 3.3911438 -3.3911438l13.564178 0l0 0c0.89938354 0 1.7619324 0.3572693 2.3978882 0.99324036c0.6359558 0.6359558 0.9932556 1.4985046 0.9932556 2.3979034l0 257.8161c0 1.8728943 -1.51828 3.3911438 -3.3911438 3.3911438l-13.564178 0c-1.8728638 0 -3.3911438 -1.5182495 -3.3911438 -3.3911438z" fill-rule="evenodd"/><path fill="#000000" fill-opacity="0.0" d="m129.51181 70.22835l89.38583 0.9133835" fill-rule="evenodd"/><path stroke="#000000" stroke-width="4.0" stroke-linejoin="round" stroke-linecap="butt" d="m129.51181 70.22835l65.387085 0.66815186" fill-rule="evenodd"/><path fill="#000000" stroke="#000000" stroke-width="4.0" stroke-linecap="butt" d="m194.83138 77.50309l18.218964 -6.4211044l-18.083939 -6.7920685z" fill-rule="evenodd"/><path fill="#000000" fill-opacity="0.0" d="m26.944881 37.811024l118.58267 0l0 64.62993l-118.58267 0z" fill-rule="evenodd"/><path fill="#000000" d="m50.588974 51.465397l4.34375 10.828125l4.328125 -10.828125l2.265625 0l0 13.265621l-1.75 0l0 -5.171871l0.171875 -5.5625l-4.359375 10.734371l-1.34375 0l-4.34375 -10.718746l0.171875 5.546875l0 5.171871l-1.734375 0l0 -13.265621l2.25 0zm13.319031 8.25q0 -1.453125 0.5625 -2.609375q0.578125 -1.15625 1.59375 -1.78125q1.015625 -0.625 2.3125 -0.625q2.015625 0 3.25 1.390625q1.25 1.390625 1.25 3.703125l0 0.125q0 1.4375 -0.546875 2.578125q-0.546875 1.140625 -1.578125 1.7812462q-1.015625 0.640625 -2.359375 0.640625q-2.0 0 -3.25 -1.3906212q-1.234375 -1.40625 -1.234375 -3.703125l0 -0.109375zm1.6875 0.203125q0 1.640625 0.765625 2.640625q0.765625 0.984375 2.03125 0.984375q1.296875 0 2.046875 -1.0q0.75 -1.015625 0.75 -2.828125q0 -1.625 -0.765625 -2.625q-0.765625 -1.015625 -2.046875 -1.015625q-1.25 0 -2.015625 1.0q-0.765625 0.984375 -0.765625 2.84375zm15.483643 3.84375q-0.984375 1.1562462 -2.890625 1.1562462q-1.578125 0 -2.40625 -0.9218712q-0.8125 -0.921875 -0.828125 -2.703125l0 -6.421875l1.6875 0l0 6.375q0 2.234375 1.828125 2.234375q1.921875 0 2.5625 -1.4375l0 -7.171875l1.6875 0l0 9.859371l-1.609375 0l-0.03125 -0.9687462zm5.800247 -8.890625l0.046875 1.234375q1.125 -1.40625 2.953125 -1.40625q3.125 0 3.15625 3.515625l0 6.515621l-1.6875 0l0 -6.515621q-0.015625 -1.078125 -0.5 -1.578125q-0.46875 -0.515625 -1.484375 -0.515625q-0.8125 0 -1.4375 0.4375q-0.609375 0.4375 -0.96875 1.15625l0 7.015621l-1.671875 0l0 -9.859371l1.59375 0zm10.981232 -2.390625l0 2.390625l1.84375 0l0 1.3125l-1.84375 0l0 6.109375q0 0.59375 0.234375 0.890625q0.25 0.296875 0.84375 0.296875q0.296875 0 0.8125 -0.109375l0 1.3593712q-0.671875 0.1875 -1.296875 0.1875q-1.125 0 -1.703125 -0.6875q-0.578125 -0.6874962 -0.578125 -1.9374962l0 -6.109375l-1.796875 0l0 -1.3125l1.796875 0l0 -2.390625l1.6875 0zm5.6411285 12.249996l-1.6875 0l0 -9.859371l1.6875 0l0 9.859371zm-1.828125 -12.468746q0 -0.40625 0.25 -0.6875q0.25 -0.296875 0.734375 -0.296875q0.5 0 0.75 0.296875q0.265625 0.28125 0.265625 0.6875q0 0.40625 -0.265625 0.6875q-0.25 0.265625 -0.75 0.265625q-0.484375 0 -0.734375 -0.265625q-0.25 -0.28125 -0.25 -0.6875zm6.12117 2.609375l0.046875 1.234375q1.125 -1.40625 2.953125 -1.40625q3.125 0 3.15625 3.515625l0 6.515621l-1.6875 0l0 -6.515621q-0.015625 -1.078125 -0.5 -1.578125q-0.46875 -0.515625 -1.484375 -0.515625q-0.8125 0 -1.4375 0.4375q-0.609375 0.4375 -0.96875 1.15625l0 7.015621l-1.671875 0l0 -9.859371l1.59375 0zm8.293732 4.84375q0 -2.296875 1.0625 -3.65625q1.0625 -1.359375 2.828125 -1.359375q1.796875 0 2.8125 1.265625l0.078125 -1.09375l1.546875 0l0 9.624996q0 1.90625 -1.140625 3.0q-1.125 1.109375 -3.046875 1.109375q-1.0625 0 -2.09375 -0.453125q-1.015625 -0.453125 -1.546875 -1.25l0.875 -1.0q1.078125 1.328125 2.65625 1.328125q1.21875 0 1.90625 -0.6875q0.6875 -0.6875 0.6875 -1.953125l0 -0.8437462q-1.0 1.1718712 -2.75 1.1718712q-1.734375 0 -2.8125 -1.3906212q-1.0625 -1.40625 -1.0625 -3.8125zm1.6875 0.203125q0 1.65625 0.6875 2.609375q0.6875 0.953125 1.921875 0.953125q1.59375 0 2.328125 -1.453125l0 -4.5q-0.765625 -1.40625 -2.3125 -1.40625q-1.234375 0 -1.9375 0.953125q-0.6875 0.953125 -0.6875 2.84375z" fill-rule="nonzero"/><path fill="#000000" d="m78.795105 87.13102l-1.765625 0l0 -6.125l-6.6875 0l0 6.125l-1.734375 0l0 -13.265625l1.734375 0l0 5.703125l6.6875 0l0 -5.703125l1.765625 0l0 13.265625zm2.3936157 -5.015625q0 -1.453125 0.5625 -2.609375q0.578125 -1.15625 1.59375 -1.78125q1.015625 -0.625 2.3125 -0.625q2.015625 0 3.25 1.390625q1.25 1.390625 1.25 3.703125l0 0.125q0 1.4375 -0.546875 2.578125q-0.546875 1.140625 -1.578125 1.78125q-1.015625 0.640625 -2.359375 0.640625q-2.0 0 -3.25 -1.390625q-1.234375 -1.40625 -1.234375 -3.703125l0 -0.109375zm1.6875 0.203125q0 1.640625 0.765625 2.640625q0.765625 0.984375 2.03125 0.984375q1.296875 0 2.046875 -1.0q0.75 -1.015625 0.75 -2.828125q0 -1.625 -0.765625 -2.625q-0.765625 -1.015625 -2.046875 -1.015625q-1.25 0 -2.015625 1.0q-0.765625 0.984375 -0.765625 2.84375zm11.233643 4.8125l-1.6875 0l0 -14.0l1.6875 0l0 14.0zm6.77742 0.1875q-2.0 0 -3.265625 -1.3125q-1.25 -1.328125 -1.25 -3.53125l0 -0.3125q0 -1.46875 0.5625 -2.609375q0.5625 -1.15625 1.5625 -1.796875q1.015625 -0.65625 2.1875 -0.65625q1.921875 0 2.984375 1.265625q1.0625 1.265625 1.0625 3.625l0 0.6875l-6.671875 0q0.03125 1.46875 0.84375 2.375q0.828125 0.890625 2.078125 0.890625q0.890625 0 1.515625 -0.359375q0.625 -0.375 1.078125 -0.96875l1.03125 0.796875q-1.234375 1.90625 -3.71875 1.90625zm-0.203125 -8.84375q-1.015625 0 -1.71875 0.75q-0.6875 0.734375 -0.84375 2.078125l4.9375 0l0 -0.125q-0.078125 -1.28125 -0.703125 -1.984375q-0.609375 -0.71875 -1.671875 -0.71875z" fill-rule="nonzero"/></g></svg>