<svg version="1.1" viewBox="0.0 0.0 739.0813648293963 524.0997375328084" fill="none" stroke="none" stroke-linecap="square" stroke-miterlimit="10" xmlns:xlink="http://www.w3.org/1999/xlink" xmlns="http://www.w3.org/2000/svg"><clipPath id="p.0"><path d="m0 0l739.08136 0l0 524.09973l-739.08136 0l0 -524.09973z" clip-rule="nonzero"/></clipPath><g clip-path="url(#p.0)"><path fill="#000000" fill-opacity="0.0" d="m0 0l739.08136 0l0 524.09973l-739.08136 0z" fill-rule="evenodd"/><path fill="#ffffff" d="m0 -0.9265092l739.0866 0l0 524.0945l-739.0866 0z" fill-rule="evenodd"/><path fill="#000000" fill-opacity="0.0" d="m153.21628 10.9973755l534.2677 0l0 457.95276l-534.2677 0z" fill-rule="evenodd"/><path stroke="#000000" stroke-width="4.0" stroke-linejoin="round" stroke-linecap="butt" d="m153.21628 10.9973755l534.2677 0l0 457.95276l-534.2677 0z" fill-rule="evenodd"/><path fill="#000000" fill-opacity="0.0" d="m604.2976 146.20126l0 0c0 -17.560059 14.2352295 -31.79528 31.795288 -31.79528l0 0c8.432678 0 16.519897 3.349846 22.482666 9.312614c5.9627686 5.9627686 9.312622 14.050034 9.312622 22.482666l0 0c0 17.560043 -14.2352295 31.795273 -31.795288 31.795273l0 0c-17.560059 0 -31.795288 -14.2352295 -31.795288 -31.795273z" fill-rule="evenodd"/><path stroke="#000000" stroke-width="4.0" stroke-linejoin="round" stroke-linecap="butt" d="m604.2976 146.20126l0 0c0 -17.560059 14.2352295 -31.79528 31.795288 -31.79528l0 0c8.432678 0 16.519897 3.349846 22.482666 9.312614c5.9627686 5.9627686 9.312622 14.050034 9.312622 22.482666l0 0c0 17.560043 -14.2352295 31.795273 -31.795288 31.795273l0 0c-17.560059 0 -31.795288 -14.2352295 -31.795288 -31.795273z" fill-rule="evenodd"/><path fill="#000000" fill-opacity="0.0" d="m617.0177 146.21526l0 0c0 -11.245728 9.116455 -20.362198 20.362183 -20.362198l0 0c5.4003906 0 10.57959 2.1452942 14.398254 5.9639435c3.8186646 3.8186646 5.963928 8.997864 5.963928 14.398254l0 0c0 11.245743 -9.116455 20.362213 -20.362183 20.362213l0 0c-11.245728 0 -20.362183 -9.11647 -20.362183 -20.362213z" fill-rule="evenodd"/><path stroke="#000000" stroke-width="4.0" stroke-linejoin="round" stroke-linecap="butt" d="m617.0177 146.21526l0 0c0 -11.245728 9.116455 -20.362198 20.362183 -20.362198l0 0c5.4003906 0 10.57959 2.1452942 14.398254 5.9639435c3.8186646 3.8186646 5.963928 8.997864 5.963928 14.398254l0 0c0 11.245743 -9.116455 20.362213 -20.362183 20.362213l0 0c-11.245728 0 -20.362183 -9.11647 -20.362183 -20.362213z" fill-rule="evenodd"/><path fill="#000000" fill-opacity="0.0" d="m604.2976 216.836l0 0c0 -17.560043 14.2352295 -31.795273 31.795288 -31.795273l0 0c8.432678 0 16.519897 3.3498383 22.482666 9.312622c5.9627686 5.9627686 9.312622 14.050018 9.312622 22.48265l0 0c0 17.560043 -14.2352295 31.795273 -31.795288 31.795273l0 0c-17.560059 0 -31.795288 -14.2352295 -31.795288 -31.795273z" fill-rule="evenodd"/><path stroke="#000000" stroke-width="4.0" stroke-linejoin="round" stroke-linecap="butt" d="m604.2976 216.836l0 0c0 -17.560043 14.2352295 -31.795273 31.795288 -31.795273l0 0c8.432678 0 16.519897 3.3498383 22.482666 9.312622c5.9627686 5.9627686 9.312622 14.050018 9.312622 22.48265l0 0c0 17.560043 -14.2352295 31.795273 -31.795288 31.795273l0 0c-17.560059 0 -31.795288 -14.2352295 -31.795288 -31.795273z" fill-rule="evenodd"/><path fill="#000000" fill-opacity="0.0" d="m617.0177 216.85l0 0c0 -11.245743 9.116455 -20.362213 20.362183 -20.362213l0 0c5.4003906 0 10.57959 2.1452942 14.398254 5.9639587c3.8186646 3.8186493 5.963928 8.9978485 5.963928 14.398254l0 0c0 11.245728 -9.116455 20.362198 -20.362183 20.362198l0 0c-11.245728 0 -20.362183 -9.11647 -20.362183 -20.362198z" fill-rule="evenodd"/><path stroke="#000000" stroke-width="4.0" stroke-linejoin="round" stroke-linecap="butt" d="m617.0177 216.85l0 0c0 -11.245743 9.116455 -20.362213 20.362183 -20.362213l0 0c5.4003906 0 10.57959 2.1452942 14.398254 5.9639587c3.8186646 3.8186493 5.963928 8.9978485 5.963928 14.398254l0 0c0 11.245728 -9.116455 20.362198 -20.362183 20.362198l0 0c-11.245728 0 -20.362183 -9.11647 -20.362183 -20.362198z" fill-rule="evenodd"/><path fill="#000000" fill-opacity="0.0" d="m604.2985 287.47205l0 0c0 -17.560059 14.2352295 -31.795273 31.795288 -31.795273l0 0c8.432617 0 16.519897 3.3498383 22.482666 9.312607c5.9627686 5.9627686 9.312622 14.050049 9.312622 22.482666l0 0c0 17.560059 -14.2352295 31.795288 -31.795288 31.795288l0 0c-17.560059 0 -31.795288 -14.2352295 -31.795288 -31.795288z" fill-rule="evenodd"/><path stroke="#000000" stroke-width="4.0" stroke-linejoin="round" stroke-linecap="butt" d="m604.2985 287.47205l0 0c0 -17.560059 14.2352295 -31.795273 31.795288 -31.795273l0 0c8.432617 0 16.519897 3.3498383 22.482666 9.312607c5.9627686 5.9627686 9.312622 14.050049 9.312622 22.482666l0 0c0 17.560059 -14.2352295 31.795288 -31.795288 31.795288l0 0c-17.560059 0 -31.795288 -14.2352295 -31.795288 -31.795288z" fill-rule="evenodd"/><path fill="#000000" fill-opacity="0.0" d="m617.01855 287.48605l0 0c0 -11.245728 9.116516 -20.362213 20.362244 -20.362213l0 0c5.4003906 0 10.57959 2.1452942 14.398254 5.9639587c3.8186646 3.8186646 5.963928 8.997864 5.963928 14.398254l0 0c0 11.245728 -9.116455 20.362213 -20.362183 20.362213l0 0c-11.245728 0 -20.362244 -9.116486 -20.362244 -20.362213z" fill-rule="evenodd"/><path stroke="#000000" stroke-width="4.0" stroke-linejoin="round" stroke-linecap="butt" d="m617.01855 287.48605l0 0c0 -11.245728 9.116516 -20.362213 20.362244 -20.362213l0 0c5.4003906 0 10.57959 2.1452942 14.398254 5.9639587c3.8186646 3.8186646 5.963928 8.997864 5.963928 14.398254l0 0c0 11.245728 -9.116455 20.362213 -20.362183 20.362213l0 0c-11.245728 0 -20.362244 -9.116486 -20.362244 -20.362213z" fill-rule="evenodd"/><path fill="#000000" fill-opacity="0.0" d="m604.2985 358.0149l0 0c0 -17.560059 14.2352295 -31.795288 31.795288 -31.795288l0 0c8.432617 0 16.519897 3.3498535 22.482666 9.312622c5.9627686 5.9627686 9.312622 14.050018 9.312622 22.482666l0 0c0 17.560028 -14.2352295 31.795258 -31.795288 31.795258l0 0c-17.560059 0 -31.795288 -14.2352295 -31.795288 -31.795258z" fill-rule="evenodd"/><path stroke="#000000" stroke-width="4.0" stroke-linejoin="round" stroke-linecap="butt" d="m604.2985 358.0149l0 0c0 -17.560059 14.2352295 -31.795288 31.795288 -31.795288l0 0c8.432617 0 16.519897 3.3498535 22.482666 9.312622c5.9627686 5.9627686 9.312622 14.050018 9.312622 22.482666l0 0c0 17.560028 -14.2352295 31.795258 -31.795288 31.795258l0 0c-17.560059 0 -31.795288 -14.2352295 -31.795288 -31.795258z" fill-rule="evenodd"/><path fill="#000000" fill-opacity="0.0" d="m617.01855 358.0289l0 0c0 -11.245758 9.116516 -20.362213 20.362244 -20.362213l0 0c5.4003906 0 10.57959 2.1452942 14.398254 5.9639587c3.8186646 3.818634 5.963928 8.997864 5.963928 14.398254l0 0c0 11.245728 -9.116455 20.362183 -20.362183 20.362183l0 0c-11.245728 0 -20.362244 -9.116455 -20.362244 -20.362183z" fill-rule="evenodd"/><path stroke="#000000" stroke-width="4.0" stroke-linejoin="round" stroke-linecap="butt" d="m617.01855 358.0289l0 0c0 -11.245758 9.116516 -20.362213 20.362244 -20.362213l0 0c5.4003906 0 10.57959 2.1452942 14.398254 5.9639587c3.8186646 3.818634 5.963928 8.997864 5.963928 14.398254l0 0c0 11.245728 -9.116455 20.362183 -20.362183 20.362183l0 0c-11.245728 0 -20.362244 -9.116455 -20.362244 -20.362183z" fill-rule="evenodd"/><path fill="#000000" fill-opacity="0.0" d="m604.29675 428.37885l0 0c0 -17.560059 14.2352295 -31.795288 31.795288 -31.795288l0 0c8.432617 0 16.519897 3.3498535 22.482666 9.312622c5.9627686 5.9627686 9.312622 14.050018 9.312622 22.482666l0 0c0 17.560028 -14.2352295 31.795258 -31.795288 31.795258l0 0c-17.560059 0 -31.795288 -14.2352295 -31.795288 -31.795258z" fill-rule="evenodd"/><path stroke="#000000" stroke-width="4.0" stroke-linejoin="round" stroke-linecap="butt" d="m604.29675 428.37885l0 0c0 -17.560059 14.2352295 -31.795288 31.795288 -31.795288l0 0c8.432617 0 16.519897 3.3498535 22.482666 9.312622c5.9627686 5.9627686 9.312622 14.050018 9.312622 22.482666l0 0c0 17.560028 -14.2352295 31.795258 -31.795288 31.795258l0 0c-17.560059 0 -31.795288 -14.2352295 -31.795288 -31.795258z" fill-rule="evenodd"/><path fill="#000000" fill-opacity="0.0" d="m617.01685 428.39285l0 0c0 -11.245758 9.116455 -20.362213 20.362183 -20.362213l0 0c5.4003906 0 10.57959 2.1452942 14.398254 5.9639587c3.8186646 3.818634 5.963928 8.997833 5.963928 14.398254l0 0c0 11.245728 -9.116455 20.362183 -20.362183 20.362183l0 0c-11.245728 0 -20.362183 -9.116455 -20.362183 -20.362183z" fill-rule="evenodd"/><path stroke="#000000" stroke-width="4.0" stroke-linejoin="round" stroke-linecap="butt" d="m617.01685 428.39285l0 0c0 -11.245758 9.116455 -20.362213 20.362183 -20.362213l0 0c5.4003906 0 10.57959 2.1452942 14.398254 5.9639587c3.8186646 3.818634 5.963928 8.997833 5.963928 14.398254l0 0c0 11.245728 -9.116455 20.362183 -20.362183 20.362183l0 0c-11.245728 0 -20.362183 -9.116455 -20.362183 -20.362183z" fill-rule="evenodd"/><path fill="#000000" fill-opacity="0.0" d="m606.50256 63.569653l0 0c0 -17.560047 14.2352295 -31.795277 31.795288 -31.795277l0 0c8.432617 0 16.519897 3.3498497 22.482666 9.312622c5.9627686 5.9627686 9.312622 14.050022 9.312622 22.482655l0 0c0 17.560047 -14.2352295 31.795277 -31.795288 31.795277l0 0c-17.560059 0 -31.795288 -14.2352295 -31.795288 -31.795277z" fill-rule="evenodd"/><path stroke="#000000" stroke-width="4.0" stroke-linejoin="round" stroke-linecap="butt" d="m606.50256 63.569653l0 0c0 -17.560047 14.2352295 -31.795277 31.795288 -31.795277l0 0c8.432617 0 16.519897 3.3498497 22.482666 9.312622c5.9627686 5.9627686 9.312622 14.050022 9.312622 22.482655l0 0c0 17.560047 -14.2352295 31.795277 -31.795288 31.795277l0 0c-17.560059 0 -31.795288 -14.2352295 -31.795288 -31.795277z" fill-rule="evenodd"/><path fill="#000000" fill-opacity="0.0" d="m268.2399 215.88715l200.15747 0l0 197.16534l-200.15747 0z" fill-rule="evenodd"/><path stroke="#000000" stroke-width="4.0" stroke-linejoin="round" stroke-linecap="butt" d="m268.2399 215.88715l200.15747 0l0 197.16534l-200.15747 0z" fill-rule="evenodd"/><path fill="#000000" fill-opacity="0.0" d="m269.51285 12.354349l185.7323 0l0 79.18111l-185.7323 0z" fill-rule="evenodd"/><path stroke="#000000" stroke-width="4.0" stroke-linejoin="round" stroke-linecap="butt" d="m269.51285 12.354349l185.7323 0l0 79.18111l-185.7323 0z" fill-rule="evenodd"/><path fill="#000000" fill-opacity="0.0" d="m283.50497 92.493454l157.7323 0l0 30.519691l-157.7323 0z" fill-rule="evenodd"/><path stroke="#000000" stroke-width="4.0" stroke-linejoin="round" stroke-linecap="butt" d="m283.50497 92.493454l157.7323 0l0 30.519691l-157.7323 0z" fill-rule="evenodd"/><path fill="#000000" fill-opacity="0.0" d="m106.2336 47.010498l251.87401 0" fill-rule="evenodd"/><path stroke="#000000" stroke-width="4.0" stroke-linejoin="round" stroke-linecap="butt" d="m106.2336 47.010498l227.87401 0" fill-rule="evenodd"/><path fill="#000000" stroke="#000000" stroke-width="4.0" stroke-linecap="butt" d="m334.1076 53.617428l18.152405 -6.60693l-18.152405 -6.60693z" fill-rule="evenodd"/><path fill="#000000" fill-opacity="0.0" d="m3.6509187 14.6955385l118.58268 0l0 64.62992l-118.58268 0z" fill-rule="evenodd"/><path fill="#000000" d="m48.870747 35.41241q0 1.921875 -0.609375 3.3125q-0.609375 1.390625 -1.71875 2.171875l2.375 1.859375l-1.203125 1.09375l-2.796875 -2.21875q-0.65625 0.171875 -1.375 0.171875q-1.578125 0 -2.796875 -0.765625q-1.203125 -0.78125 -1.875 -2.203125q-0.65625 -1.421875 -0.671875 -3.296875l0 -0.96875q0 -1.90625 0.65625 -3.375q0.671875 -1.46875 1.875 -2.25q1.21875 -0.78125 2.796875 -0.78125q1.59375 0 2.8125 0.78125q1.21875 0.78125 1.875 2.234375q0.65625 1.453125 0.65625 3.390625l0 0.84375zm-1.75 -0.859375q0 -2.34375 -0.9375 -3.609375q-0.9375 -1.265625 -2.65625 -1.265625q-1.65625 0 -2.609375 1.265625q-0.953125 1.25 -0.984375 3.5l0 0.96875q0 2.28125 0.953125 3.59375q0.953125 1.3125 2.640625 1.3125q1.703125 0 2.625 -1.234375q0.9375 -1.234375 0.96875 -3.546875l0 -0.984375zm7.12825 2.875l0.25 1.75l0.375 -1.578125l2.625 -9.25l1.46875 0l2.5625 9.25l0.359375 1.609375l0.28125 -1.78125l2.0625038 -9.078125l1.765625 0l-3.2187538 13.265625l-1.59375 0l-2.734375 -9.671875l-0.203125 -1.0l-0.21875 1.0l-2.828125 9.671875l-1.59375 0l-3.203125 -13.265625l1.75 0l2.09375 9.078125zm15.567585 4.1875l-1.75 0l0 -13.265625l1.75 0l0 13.265625zm5.07399 0l-1.75 0l0 -13.265625l1.75 0l0 13.265625zm12.94899 -4.203125q-0.25 2.09375 -1.5625 3.25q-1.296875 1.140625 -3.46875 1.140625q-2.34375 0 -3.765625 -1.6875q-1.421875 -1.6875 -1.421875 -4.515625l0 -1.265625q0 -1.859375 0.65625 -3.25q0.671875 -1.40625 1.875 -2.15625q1.21875 -0.765625 2.8125 -0.765625q2.109375 0 3.390625 1.1875q1.28125 1.171875 1.484375 3.265625l-1.765625 0q-0.21875 -1.578125 -0.984375 -2.28125q-0.765625 -0.71875 -2.125 -0.71875q-1.671875 0 -2.625 1.234375q-0.953125 1.234375 -0.953125 3.53125l0 1.28125q0 2.15625 0.890625 3.4375q0.90625 1.265625 2.53125 1.265625q1.453125 0 2.234375 -0.65625q0.78125 -0.65625 1.03125 -2.296875l1.765625 0z" fill-rule="nonzero"/><path fill="#000000" d="m31.297018 59.81241q-0.25 2.09375 -1.5625 3.25q-1.296875 1.140625 -3.46875 1.140625q-2.34375 0 -3.765625 -1.6875q-1.421875 -1.6875 -1.421875 -4.515625l0 -1.265625q0 -1.859375 0.65625 -3.25q0.671875 -1.40625 1.875 -2.15625q1.21875 -0.765625 2.8125 -0.765625q2.109375 0 3.390625 1.1875q1.28125 1.171875 1.484375 3.265625l-1.765625 0q-0.21875 -1.578125 -0.984375 -2.28125q-0.765625 -0.71875 -2.125 -0.71875q-1.671875 0 -2.625 1.234375q-0.953125 1.234375 -0.953125 3.53125l0 1.28125q0 2.15625 0.890625 3.4375q0.90625 1.265625 2.53125 1.265625q1.453125 0 2.234375 -0.65625q0.78125 -0.65625 1.03125 -2.296875l1.765625 0zm1.6742077 -0.8125q0 -1.453125 0.5625 -2.609375q0.578125 -1.15625 1.59375 -1.78125q1.015625 -0.625 2.3125 -0.625q2.015625 0 3.25 1.390625q1.25 1.390625 1.25 3.703125l0 0.125q0 1.4375 -0.546875 2.578125q-0.546875 1.140625 -1.578125 1.78125q-1.015625 0.640625 -2.359375 0.640625q-2.0 0 -3.25 -1.390625q-1.234375 -1.40625 -1.234375 -3.703125l0 -0.109375zm1.6875 0.203125q0 1.640625 0.765625 2.640625q0.765625 0.984375 2.03125 0.984375q1.296875 0 2.046875 -1.0q0.75 -1.015625 0.75 -2.828125q0 -1.625 -0.765625 -2.625q-0.765625 -1.015625 -2.046875 -1.015625q-1.25 0 -2.015625 1.0q-0.765625 0.984375 -0.765625 2.84375zm10.999268 -5.046875l0.046875 1.234375q1.125 -1.40625 2.953125 -1.40625q3.125 0 3.15625 3.515625l0 6.515625l-1.6875 0l0 -6.515625q-0.015625 -1.078125 -0.5 -1.578125q-0.46875 -0.515625 -1.484375 -0.515625q-0.8125 0 -1.4375 0.4375q-0.609375 0.4375 -0.96875 1.15625l0 7.015625l-1.671875 0l0 -9.859375l1.59375 0zm10.293732 0l0.046875 1.234375q1.125 -1.40625 2.953125 -1.40625q3.125 0 3.15625 3.515625l0 6.515625l-1.6875 0l0 -6.515625q-0.015625 -1.078125 -0.5 -1.578125q-0.46875 -0.515625 -1.484375 -0.515625q-0.8125 0 -1.4375 0.4375q-0.609375 0.4375 -0.96875 1.15625l0 7.015625l-1.671875 0l0 -9.859375l1.59375 0zm12.7781105 10.046875q-2.0 0 -3.265625 -1.3125q-1.25 -1.328125 -1.25 -3.53125l0 -0.3125q0 -1.46875 0.5625 -2.609375q0.5625 -1.15625 1.5625 -1.796875q1.015625 -0.65625 2.1875 -0.65625q1.921875 0 2.984375 1.265625q1.0625 1.265625 1.0625 3.625l0 0.6875l-6.671875 0q0.03125 1.46875 0.84375 2.375q0.828125 0.890625 2.078125 0.890625q0.890625 0 1.515625 -0.359375q0.625 -0.375 1.078125 -0.96875l1.03125 0.796875q-1.234375 1.90625 -3.71875 1.90625zm-0.203125 -8.84375q-1.015625 0 -1.71875 0.75q-0.6875 0.734375 -0.84375 2.078125l4.9375 0l0 -0.125q-0.078125 -1.28125 -0.703125 -1.984375q-0.609375 -0.71875 -1.671875 -0.71875zm9.961929 7.46875q0.890625 0 1.5625 -0.546875q0.6875 -0.546875 0.75 -1.375l1.59375 0q-0.046875 0.84375 -0.578125 1.609375q-0.53125 0.765625 -1.4375 1.234375q-0.890625 0.453125 -1.890625 0.453125q-2.015625 0 -3.203125 -1.34375q-1.1875 -1.34375 -1.1875 -3.6875l0 -0.28125q0 -1.4375 0.515625 -2.546875q0.53125 -1.125 1.515625 -1.734375q1.0 -0.625 2.34375 -0.625q1.65625 0 2.75 1.0q1.109375 0.984375 1.171875 2.5625l-1.59375 0q-0.0625 -0.953125 -0.71875 -1.5625q-0.65625 -0.625 -1.609375 -0.625q-1.28125 0 -2.0 0.921875q-0.703125 0.921875 -0.703125 2.671875l0 0.328125q0 1.703125 0.703125 2.625q0.703125 0.921875 2.015625 0.921875zm8.093506 -11.0625l0 2.390625l1.84375 0l0 1.3125l-1.84375 0l0 6.109375q0 0.59375 0.234375 0.890625q0.25 0.296875 0.84375 0.296875q0.296875 0 0.8125 -0.109375l0 1.359375q-0.671875 0.1875 -1.296875 0.1875q-1.125 0 -1.703125 -0.6875q-0.578125 -0.6875 -0.578125 -1.9375l0 -6.109375l-1.796875 0l0 -1.3125l1.796875 0l0 -2.390625l1.6875 0zm3.1775818 7.234375q0 -1.453125 0.5625 -2.609375q0.578125 -1.15625 1.59375 -1.78125q1.015625 -0.625 2.3125 -0.625q2.015625 0 3.25 1.390625q1.25 1.390625 1.25 3.703125l0 0.125q0 1.4375 -0.546875 2.578125q-0.546875 1.140625 -1.578125 1.78125q-1.015625 0.640625 -2.359375 0.640625q-2.0 0 -3.25 -1.390625q-1.234375 -1.40625 -1.234375 -3.703125l0 -0.109375zm1.6875 0.203125q0 1.640625 0.765625 2.640625q0.765625 0.984375 2.03125 0.984375q1.296875 0 2.046875 -1.0q0.75 -1.015625 0.75 -2.828125q0 -1.625 -0.765625 -2.625q-0.765625 -1.015625 -2.046875 -1.015625q-1.25 0 -2.015625 1.0q-0.765625 0.984375 -0.765625 2.84375zm14.171143 -3.53125q-0.390625 -0.0625 -0.84375 -0.0625q-1.65625 0 -2.25 1.40625l0 7.0l-1.671875 0l0 -9.859375l1.640625 0l0.015625 1.140625q0.828125 -1.3125 2.359375 -1.3125q0.484375 0 0.75 0.125l0 1.5625z" fill-rule="nonzero"/><path fill="#000000" fill-opacity="0.0" d="m558.04987 26.416315l0 0c0 -1.8728771 1.5182495 -3.3911438 3.3911743 -3.3911438l13.564148 0l0 0c0.899353 0 1.7619019 0.35728073 2.3978882 0.99324226c0.6359863 0.63596344 0.9932251 1.4985142 0.9932251 2.3979015l0 117.87913c0 1.872879 -1.5182495 3.3911438 -3.3911133 3.3911438l-13.564148 0c-1.8729248 0 -3.3911743 -1.5182648 -3.3911743 -3.3911438z" fill-rule="evenodd"/><path stroke="#000000" stroke-width="4.0" stroke-linejoin="round" stroke-linecap="butt" d="m558.04987 26.416315l0 0c0 -1.8728771 1.5182495 -3.3911438 3.3911743 -3.3911438l13.564148 0l0 0c0.899353 0 1.7619019 0.35728073 2.3978882 0.99324226c0.6359863 0.63596344 0.9932251 1.4985142 0.9932251 2.3979015l0 117.87913c0 1.872879 -1.5182495 3.3911438 -3.3911133 3.3911438l-13.564148 0c-1.8729248 0 -3.3911743 -1.5182648 -3.3911743 -3.3911438z" fill-rule="evenodd"/><path fill="#000000" fill-opacity="0.0" d="m555.5066 196.87563l0 0c0 -1.8728638 1.5182495 -3.3911438 3.3911133 -3.3911438l13.564148 0l0 0c0.89941406 0 1.7619629 0.35728455 2.3979492 0.9932556c0.6359253 0.6359558 0.9932251 1.4985046 0.9932251 2.3978882l0 257.81616c0 1.8728638 -1.5182495 3.3911438 -3.3911743 3.3911438l-13.564148 0c-1.8728638 0 -3.3911133 -1.51828 -3.3911133 -3.3911438z" fill-rule="evenodd"/><path stroke="#000000" stroke-width="4.0" stroke-linejoin="round" stroke-linecap="butt" d="m555.5066 196.87563l0 0c0 -1.8728638 1.5182495 -3.3911438 3.3911133 -3.3911438l13.564148 0l0 0c0.89941406 0 1.7619629 0.35728455 2.3979492 0.9932556c0.6359253 0.6359558 0.9932251 1.4985046 0.9932251 2.3978882l0 257.81616c0 1.8728638 -1.5182495 3.3911438 -3.3911743 3.3911438l-13.564148 0c-1.8728638 0 -3.3911133 -1.51828 -3.3911133 -3.3911438z" fill-rule="evenodd"/></g></svg>